<svg width="198" height="40" viewBox="0 0 198 40" fill="none" xmlns="http://www.w3.org/2000/svg">
<path d="M39.96 29.08C40.3067 29.08 40.5733 29.24 40.76 29.56C40.9733 29.88 41.08 30.32 41.08 30.88C41.08 31.92 40.8267 32.7467 40.32 33.36C37.68 36.5867 34.8667 38.2 31.88 38.2C29.2933 38.2 27.2267 37.2 25.68 35.2C24.1333 33.2 23.36 30.3333 23.36 26.6C23.36 25.6933 23.4 24.7867 23.48 23.88C21.72 24.2 19.8 24.44 17.72 24.6C16.3333 24.7067 15.3867 24.7733 14.88 24.8C14.3467 27.52 13.6 30.8533 12.64 34.8C12.08 37.12 11.0133 38.28 9.44 38.28C7.73333 38.28 6.88 37.5067 6.88 35.96C6.88 35.6133 6.94667 35.1333 7.08 34.52C7.98667 30.8667 8.70667 27.7733 9.24 25.24L7.32 25.32C6.44 25.32 5.8 25.1733 5.4 24.88C5 24.56 4.8 24.0533 4.8 23.36C4.8 22.48 5.05333 21.84 5.56 21.44C6.06667 21.0133 6.90667 20.7733 8.08 20.72L10.2 20.64C10.8933 16.88 11.24 14.0133 11.24 12.04C11.24 10.7867 11.0533 9.93333 10.68 9.48C10.3067 9.02667 9.81333 8.8 9.2 8.8C7.33333 8.8 5.22667 10.36 2.88 13.48C2.53333 13.9333 2.14667 14.16 1.72 14.16C1.34667 14.16 1.02667 13.9867 0.76 13.64C0.493333 13.2933 0.36 12.8533 0.36 12.32C0.36 11.4933 0.693333 10.6133 1.36 9.68C2.53333 8.05333 4.01333 6.72 5.8 5.68C7.58667 4.61333 9.4 4.08 11.24 4.08C12.9733 4.08 14.3067 4.68 15.24 5.88C16.2 7.05333 16.68 8.89333 16.68 11.4C16.68 13.6133 16.36 16.6133 15.72 20.4L19.64 20.2C21.32 20.12 22.76 19.9867 23.96 19.8C24.44 16.8667 25.1733 14.12 26.16 11.56C27.1467 9 28.3733 6.92 29.84 5.32C31.3067 3.72 32.9467 2.92 34.76 2.92C36.0933 2.92 37.1467 3.45333 37.92 4.52C38.6933 5.56 39.08 6.93333 39.08 8.64C39.08 15.2533 35.7067 19.84 28.96 22.4C28.88 23.4667 28.84 24.5733 28.84 25.72C28.84 28.52 29.1867 30.5067 29.88 31.68C30.5733 32.8533 31.5467 33.44 32.8 33.44C33.8933 33.44 34.8933 33.16 35.8 32.6C36.7067 32.0133 37.7333 31.0267 38.88 29.64C39.2 29.2667 39.56 29.08 39.96 29.08ZM34.56 6.4C33.9733 6.4 33.3467 6.93333 32.68 8C32.04 9.06666 31.4267 10.52 30.84 12.36C30.2533 14.2 29.7867 16.2133 29.44 18.4C31.5733 17.52 33.1467 16.2667 34.16 14.64C35.1733 13.0133 35.68 10.92 35.68 8.36C35.68 7.74666 35.5733 7.26666 35.36 6.92C35.1467 6.57333 34.88 6.4 34.56 6.4ZM42.7619 38.2C41.1085 38.2 39.7885 37.6 38.8019 36.4C37.8152 35.2 37.3219 33.6267 37.3219 31.68C37.3219 29.5467 37.8152 27.5333 38.8019 25.64C39.7885 23.72 41.0952 22.1867 42.7219 21.04C44.3752 19.8667 46.1219 19.28 47.9619 19.28C48.5485 19.28 48.9352 19.4 49.1219 19.64C49.3352 19.8533 49.5085 20.2533 49.6419 20.84C50.2019 20.7333 50.7885 20.68 51.4019 20.68C52.7085 20.68 53.3619 21.1467 53.3619 22.08C53.3619 22.64 53.1619 23.9733 52.7619 26.08C52.1485 29.1467 51.8419 31.28 51.8419 32.48C51.8419 32.88 51.9352 33.2 52.1219 33.44C52.3352 33.68 52.6019 33.8 52.9219 33.8C53.4285 33.8 54.0419 33.48 54.7619 32.84C55.4819 32.1733 56.4552 31.1067 57.6819 29.64C58.0019 29.2667 58.3619 29.08 58.7619 29.08C59.1085 29.08 59.3752 29.24 59.5619 29.56C59.7752 29.88 59.8819 30.32 59.8819 30.88C59.8819 31.9467 59.6285 32.7733 59.1219 33.36C58.0285 34.72 56.8685 35.8667 55.6419 36.8C54.4152 37.7333 53.2285 38.2 52.0819 38.2C51.2019 38.2 50.3885 37.9067 49.6419 37.32C48.9219 36.7067 48.3752 35.88 48.0019 34.84C46.6152 37.08 44.8685 38.2 42.7619 38.2ZM44.2019 34.16C44.7885 34.16 45.3485 33.8133 45.8819 33.12C46.4152 32.4267 46.8019 31.5067 47.0419 30.36L48.5219 23C47.4019 23.0267 46.3619 23.4533 45.4019 24.28C44.4685 25.08 43.7219 26.1467 43.1619 27.48C42.6019 28.8133 42.3219 30.2267 42.3219 31.72C42.3219 32.5467 42.4819 33.16 42.8019 33.56C43.1485 33.96 43.6152 34.16 44.2019 34.16ZM59.4709 38.2C58.4576 38.2 57.7376 37.6667 57.3109 36.6C56.9109 35.5333 56.7109 33.8267 56.7109 31.48C56.7109 28.0133 57.2043 24.72 58.1909 21.6C58.4309 20.8267 58.8176 20.2667 59.3509 19.92C59.9109 19.5467 60.6843 19.36 61.6709 19.36C62.2043 19.36 62.5776 19.4267 62.7909 19.56C63.0043 19.6933 63.1109 19.9467 63.1109 20.32C63.1109 20.7467 62.9109 21.7067 62.5109 23.2C62.2443 24.2667 62.0309 25.2 61.8709 26C61.7109 26.8 61.5776 27.7867 61.4709 28.96C62.3509 26.6667 63.3376 24.8 64.4309 23.36C65.5243 21.92 66.5909 20.8933 67.6309 20.28C68.6976 19.6667 69.6709 19.36 70.5509 19.36C72.2843 19.36 73.1509 20.2267 73.1509 21.96C73.1509 23 72.8576 24.88 72.2709 27.6C71.7643 29.92 71.5109 31.4533 71.5109 32.2C71.5109 33.2667 71.8976 33.8 72.6709 33.8C73.2043 33.8 73.8309 33.48 74.5509 32.84C75.2976 32.1733 76.2843 31.1067 77.5109 29.64C77.8309 29.2667 78.1909 29.08 78.5909 29.08C78.9376 29.08 79.2043 29.24 79.3909 29.56C79.6043 29.88 79.7109 30.32 79.7109 30.88C79.7109 31.9467 79.4576 32.7733 78.9509 33.36C77.8043 34.7733 76.5643 35.9333 75.2309 36.84C73.9243 37.7467 72.4309 38.2 70.7509 38.2C69.3909 38.2 68.3643 37.8133 67.6709 37.04C66.9776 36.24 66.6309 35.0933 66.6309 33.6C66.6309 32.8533 66.8176 31.52 67.1909 29.6C67.5376 27.92 67.7109 26.76 67.7109 26.12C67.7109 25.6933 67.5643 25.48 67.2709 25.48C66.9243 25.48 66.4309 25.9333 65.7909 26.84C65.1776 27.72 64.5376 28.8933 63.8709 30.36C63.2309 31.8267 62.7109 33.3733 62.3109 35C62.0176 36.2533 61.6709 37.1067 61.2709 37.56C60.8976 37.9867 60.2976 38.2 59.4709 38.2ZM91.0347 29.08C91.328 31.2667 91.7547 33.4267 92.3147 35.56C92.4214 35.9067 92.4747 36.2667 92.4747 36.64C92.4747 37.84 91.7414 38.44 90.2747 38.44C89.448 38.44 88.808 38.2133 88.3547 37.76C87.928 37.3067 87.528 36.4533 87.1547 35.2L87.1147 35.04C86.1014 36.2933 85.1814 37.1333 84.3547 37.56C83.5547 37.9867 82.6214 38.2 81.5547 38.2C79.928 38.2 78.5814 37.6 77.5147 36.4C76.4747 35.1733 75.9547 33.5867 75.9547 31.64C75.9547 29.5067 76.408 27.5333 77.3147 25.72C78.2214 23.9067 79.4614 22.4267 81.0347 21.28C82.608 20.1067 84.368 19.4 86.3147 19.16C86.8214 14.12 87.7814 9.73333 89.1947 6C90.6347 2.26666 92.5414 0.399998 94.9147 0.399998C96.0614 0.399998 97.008 0.919998 97.7547 1.96C98.528 3 98.9147 4.57333 98.9147 6.68C98.9147 9.61333 98.1947 13.04 96.7547 16.96C95.3147 20.88 93.408 24.92 91.0347 29.08ZM94.4747 4.32C93.7014 4.32 92.968 6.29333 92.2747 10.24C91.608 14.1867 91.1547 18.48 90.9147 23.12C93.8747 16.72 95.3547 11.52 95.3547 7.52C95.3547 6.50667 95.2614 5.72 95.0747 5.16C94.9147 4.6 94.7147 4.32 94.4747 4.32ZM82.9547 34.16C83.488 34.16 83.9947 33.96 84.4747 33.56C84.9814 33.16 85.6214 32.3867 86.3947 31.24C86.128 29.2933 85.9947 27.28 85.9947 25.2C85.9947 24.3733 86.008 23.7333 86.0347 23.28C84.568 23.7067 83.3547 24.68 82.3947 26.2C81.4347 27.72 80.9547 29.4 80.9547 31.24C80.9547 33.1867 81.6214 34.16 82.9547 34.16ZM114.147 38.2C113.161 38.2 112.454 37.9867 112.027 37.56C111.601 37.1067 111.387 36.2667 111.387 35.04C111.387 34.2133 111.467 33.2133 111.627 32.04C111.787 30.8667 112.067 29.0933 112.467 26.72C112.521 26.4 112.734 25.1067 113.107 22.84C113.481 20.5467 113.814 18.1467 114.107 15.64C114.374 13.5067 114.507 11.9067 114.507 10.84C114.507 9.64 114.067 9.04 113.187 9.04C112.521 9.04 111.681 9.4 110.667 10.12C109.681 10.8133 108.614 11.9333 107.467 13.48C107.094 13.9867 106.681 14.24 106.227 14.24C105.854 14.24 105.521 14.0667 105.227 13.72C104.961 13.3467 104.827 12.9333 104.827 12.48C104.827 12.0267 104.907 11.6 105.067 11.2C105.227 10.7733 105.521 10.2667 105.947 9.68C107.254 7.89333 108.707 6.52 110.307 5.56C111.907 4.57333 113.587 4.08 115.347 4.08C116.814 4.08 117.907 4.53333 118.627 5.44C119.374 6.34667 119.747 7.66667 119.747 9.4C119.747 10.9467 119.534 13.1867 119.107 16.12C120.441 12.1733 122.134 9.18666 124.187 7.16C126.241 5.10666 128.654 4.08 131.427 4.08C133.614 4.08 135.254 4.70666 136.347 5.96C137.467 7.18666 138.027 8.84 138.027 10.92C138.027 12.0933 137.854 13.52 137.507 15.2L135.067 26.64C134.801 27.9733 134.667 29.12 134.667 30.08C134.667 31.2 134.921 32.04 135.427 32.6C135.961 33.16 136.694 33.44 137.627 33.44C138.507 33.44 139.361 33.1467 140.187 32.56C141.041 31.9733 142.041 31 143.187 29.64C143.507 29.2667 143.867 29.08 144.267 29.08C144.614 29.08 144.881 29.24 145.067 29.56C145.281 29.88 145.387 30.32 145.387 30.88C145.387 31.92 145.134 32.7467 144.627 33.36C143.241 35.04 141.867 36.2667 140.507 37.04C139.147 37.8133 137.721 38.2 136.227 38.2C133.961 38.2 132.187 37.5333 130.907 36.2C129.627 34.84 128.987 33.0267 128.987 30.76C128.987 29.88 129.054 28.92 129.187 27.88C129.347 26.84 129.601 25.52 129.947 23.92L131.547 16.6C131.601 16.36 131.694 15.9333 131.827 15.32C131.961 14.7067 132.067 14.1333 132.147 13.6C132.227 13.04 132.267 12.4933 132.267 11.96C132.267 11.1067 132.027 10.4267 131.547 9.92C131.067 9.41333 130.387 9.16 129.507 9.16C127.907 9.16 126.307 10.0133 124.707 11.72C123.107 13.4267 121.627 16.1867 120.267 20C118.907 23.7867 117.841 28.64 117.067 34.56C116.881 35.92 116.601 36.8667 116.227 37.4C115.881 37.9333 115.187 38.2 114.147 38.2ZM147.059 38.2C145.405 38.2 144.085 37.6 143.099 36.4C142.112 35.2 141.619 33.6267 141.619 31.68C141.619 29.5467 142.112 27.5333 143.099 25.64C144.085 23.72 145.392 22.1867 147.019 21.04C148.672 19.8667 150.419 19.28 152.259 19.28C152.845 19.28 153.232 19.4 153.419 19.64C153.632 19.8533 153.805 20.2533 153.939 20.84C154.499 20.7333 155.085 20.68 155.699 20.68C157.005 20.68 157.659 21.1467 157.659 22.08C157.659 22.64 157.459 23.9733 157.059 26.08C156.445 29.1467 156.139 31.28 156.139 32.48C156.139 32.88 156.232 33.2 156.419 33.44C156.632 33.68 156.899 33.8 157.219 33.8C157.725 33.8 158.339 33.48 159.059 32.84C159.779 32.1733 160.752 31.1067 161.979 29.64C162.299 29.2667 162.659 29.08 163.059 29.08C163.405 29.08 163.672 29.24 163.859 29.56C164.072 29.88 164.179 30.32 164.179 30.88C164.179 31.9467 163.925 32.7733 163.419 33.36C162.325 34.72 161.165 35.8667 159.939 36.8C158.712 37.7333 157.525 38.2 156.379 38.2C155.499 38.2 154.685 37.9067 153.939 37.32C153.219 36.7067 152.672 35.88 152.299 34.84C150.912 37.08 149.165 38.2 147.059 38.2ZM148.499 34.16C149.085 34.16 149.645 33.8133 150.179 33.12C150.712 32.4267 151.099 31.5067 151.339 30.36L152.819 23C151.699 23.0267 150.659 23.4533 149.699 24.28C148.765 25.08 148.019 26.1467 147.459 27.48C146.899 28.8133 146.619 30.2267 146.619 31.72C146.619 32.5467 146.779 33.16 147.099 33.56C147.445 33.96 147.912 34.16 148.499 34.16ZM166.168 16.72C165.048 16.72 164.208 16.4667 163.648 15.96C163.088 15.4267 162.808 14.6933 162.808 13.76C162.808 12.8267 163.168 12.0533 163.888 11.44C164.634 10.8 165.554 10.48 166.648 10.48C167.634 10.48 168.434 10.72 169.048 11.2C169.661 11.68 169.968 12.36 169.968 13.24C169.968 14.3067 169.621 15.16 168.928 15.8C168.234 16.4133 167.314 16.72 166.168 16.72ZM165.848 38.2C164.114 38.2 162.848 37.5867 162.048 36.36C161.274 35.1333 160.888 33.5067 160.888 31.48C160.888 30.28 161.034 28.7467 161.328 26.88C161.648 24.9867 162.048 23.2267 162.528 21.6C162.768 20.7467 163.088 20.16 163.488 19.84C163.888 19.52 164.528 19.36 165.408 19.36C166.768 19.36 167.448 19.8133 167.448 20.72C167.448 21.3867 167.194 22.9333 166.688 25.36C166.048 28.2933 165.728 30.28 165.728 31.32C165.728 32.12 165.834 32.7333 166.048 33.16C166.261 33.5867 166.621 33.8 167.128 33.8C167.608 33.8 168.208 33.4667 168.928 32.8C169.648 32.1333 170.608 31.08 171.808 29.64C172.128 29.2667 172.488 29.08 172.888 29.08C173.234 29.08 173.501 29.24 173.688 29.56C173.901 29.88 174.008 30.32 174.008 30.88C174.008 31.9467 173.754 32.7733 173.248 33.36C170.608 36.5867 168.141 38.2 165.848 38.2ZM185.932 29.08C186.278 29.08 186.545 29.24 186.732 29.56C186.945 29.88 187.052 30.32 187.052 30.88C187.052 31.9467 186.798 32.7733 186.292 33.36C185.145 34.7733 183.892 35.9333 182.532 36.84C181.198 37.7467 179.678 38.2 177.972 38.2C175.625 38.2 173.878 37.1333 172.732 35C171.612 32.8667 171.052 30.1067 171.052 26.72C171.052 23.4667 171.465 19.76 172.292 15.6C173.145 11.44 174.385 7.86667 176.012 4.88C177.665 1.89333 179.625 0.399998 181.892 0.399998C183.172 0.399998 184.172 0.999998 184.892 2.2C185.638 3.37333 186.012 5.06667 186.012 7.28C186.012 10.4533 185.132 14.1333 183.372 18.32C181.612 22.5067 179.225 26.6533 176.212 30.76C176.398 31.8533 176.705 32.64 177.132 33.12C177.558 33.5733 178.118 33.8 178.812 33.8C179.905 33.8 180.865 33.4933 181.692 32.88C182.518 32.24 183.572 31.16 184.852 29.64C185.172 29.2667 185.532 29.08 185.932 29.08ZM181.012 4.36C180.398 4.36 179.705 5.46667 178.932 7.68C178.158 9.89333 177.478 12.64 176.892 15.92C176.305 19.2 175.985 22.3467 175.932 25.36C177.825 22.24 179.332 19.12 180.452 16C181.572 12.8533 182.132 9.98666 182.132 7.4C182.132 5.37333 181.758 4.36 181.012 4.36ZM191.258 39.08C189.872 39.08 188.805 38.76 188.058 38.12C187.338 37.48 186.978 36.76 186.978 35.96C186.978 35.2667 187.232 34.6667 187.738 34.16C188.245 33.6533 188.992 33.4 189.978 33.4C190.325 33.4 190.725 33.44 191.178 33.52C191.658 33.5733 192.018 33.6133 192.258 33.64C192.232 32.9467 192.072 32.2933 191.778 31.68C191.512 31.0667 191.165 30.48 190.738 29.92C190.312 29.3333 189.912 28.8267 189.538 28.4C188.712 29.9733 187.885 31.28 187.058 32.32C186.258 33.36 185.378 34.3467 184.418 35.28C183.938 35.76 183.432 36 182.898 36C182.472 36 182.125 35.8533 181.858 35.56C181.592 35.24 181.458 34.8533 181.458 34.4C181.458 33.8667 181.645 33.3733 182.018 32.92L182.538 32.28C184.005 30.4667 185.112 28.9733 185.858 27.8C186.338 27.0267 186.818 26.1067 187.298 25.04C187.805 23.9733 188.458 22.52 189.258 20.68C189.765 19.5067 190.818 18.92 192.418 18.92C193.165 18.92 193.685 18.9867 193.978 19.12C194.272 19.2533 194.418 19.4667 194.418 19.76C194.418 19.92 194.365 20.1733 194.258 20.52C194.152 20.8667 194.005 21.2133 193.818 21.56C193.338 22.52 193.098 23.3333 193.098 24C193.098 24.4 193.232 24.84 193.498 25.32C193.792 25.8 194.232 26.4 194.818 27.12C195.672 28.24 196.312 29.2 196.738 30C197.192 30.7733 197.418 31.6267 197.418 32.56C197.418 33.68 197.152 34.7467 196.618 35.76C196.112 36.7467 195.392 37.5467 194.458 38.16C193.525 38.7733 192.458 39.08 191.258 39.08Z" fill="#003E53"/>
</svg>
